<?xml version="1.0" encoding="utf-8"?>
<!-- Generator: Adobe Illustrator 27.5.0, SVG Export Plug-In . SVG Version: 6.00 Build 0)  -->
<svg version="1.1" id="Layer_1" xmlns="http://www.w3.org/2000/svg" xmlns:xlink="http://www.w3.org/1999/xlink" x="0px" y="0px"
	 viewBox="0 0 2048 2048" style="enable-background:new 0 0 2048 2048;" xml:space="preserve">
<rect id="BG" style="fill:#F5FAFF;" width="2048" height="2048"/>
<g id="leave_plant">
	<g>
		<path style="fill:#B3E0DC;" d="M586.431,1033.924c0,0-60.214-418.133,92.679-475.491
			c152.893-57.358-24.525,472.066-24.525,472.066L586.431,1033.924z"/>
		<path style="fill:#008880;" d="M615.725,1033.606c-0.058,0-0.116-0.004-0.175-0.012c-0.686-0.096-1.165-0.729-1.068-1.416
			c0.154-1.104,15.646-111.701,35.148-225.294c26.219-152.719,46.846-237.853,61.308-253.036c0.479-0.502,1.272-0.52,1.773-0.043
			c0.502,0.477,0.521,1.271,0.044,1.772c-33.783,35.467-95.173,472.537-95.79,476.948
			C616.878,1033.153,616.341,1033.606,615.725,1033.606z"/>
		<path style="fill:#008880;" d="M677.69,666.645c-0.439,0-0.866-0.231-1.096-0.643c-0.338-0.605-0.121-1.369,0.483-1.706
			l63.494-35.445c0.604-0.337,1.369-0.122,1.706,0.483c0.338,0.605,0.121,1.369-0.483,1.706l-63.494,35.445
			C678.107,666.594,677.897,666.645,677.69,666.645z"/>
		<path style="fill:#008880;" d="M671.988,694.029c-0.412,0-0.816-0.203-1.056-0.576l-51.931-80.75
			c-0.375-0.583-0.206-1.358,0.376-1.733c0.583-0.374,1.358-0.206,1.733,0.376l51.931,80.75c0.375,0.583,0.206,1.358-0.377,1.733
			C672.456,693.964,672.221,694.029,671.988,694.029z"/>
		<path style="fill:#008880;" d="M661.809,746.837c-0.475,0-0.928-0.271-1.14-0.73c-0.29-0.629-0.015-1.374,0.614-1.663
			l73.06-33.652c0.63-0.29,1.373-0.015,1.663,0.615c0.29,0.629,0.015,1.374-0.614,1.663l-73.06,33.652
			C662.162,746.8,661.984,746.837,661.809,746.837z"/>
		<path style="fill:#008880;" d="M655.262,783.021c-0.354,0-0.706-0.149-0.954-0.44l-67.279-78.824
			c-0.45-0.527-0.387-1.318,0.14-1.767c0.525-0.449,1.318-0.387,1.768,0.14l67.279,78.824c0.45,0.527,0.387,1.318-0.14,1.768
			C655.84,782.922,655.55,783.021,655.262,783.021z"/>
		<path style="fill:#008880;" d="M642.334,859.301c-0.458,0-0.9-0.252-1.121-0.689c-0.312-0.619-0.063-1.372,0.555-1.685
			l71.093-35.865c0.618-0.313,1.372-0.064,1.685,0.555c0.312,0.619,0.063,1.372-0.555,1.685l-71.093,35.865
			C642.717,859.258,642.524,859.301,642.334,859.301z"/>
		<path style="fill:#008880;" d="M635.883,899.399c-0.361,0-0.719-0.155-0.967-0.455l-60.674-73.441
			c-0.441-0.534-0.366-1.324,0.168-1.766c0.534-0.44,1.324-0.365,1.766,0.168l60.674,73.441c0.441,0.534,0.366,1.324-0.168,1.766
			C636.447,899.305,636.164,899.399,635.883,899.399z"/>
		<path style="fill:#008880;" d="M625.097,969.397c-0.34,0-0.678-0.137-0.925-0.407l-49.031-53.548
			c-0.468-0.511-0.433-1.304,0.078-1.771c0.512-0.468,1.304-0.432,1.771,0.078l49.031,53.548c0.468,0.511,0.433,1.304-0.078,1.771
			C625.702,969.288,625.399,969.397,625.097,969.397z"/>
		<path style="fill:#008880;" d="M621.833,991.333c-0.482,0-0.942-0.28-1.148-0.75c-0.279-0.634,0.01-1.374,0.644-1.652
			l52.675-23.123c0.635-0.28,1.374,0.009,1.652,0.644c0.279,0.634-0.01,1.374-0.644,1.652l-52.675,23.123
			C622.173,991.299,622.002,991.333,621.833,991.333z"/>
		<path style="fill:#008880;" d="M620.218,1002.34c-0.498,0-0.968-0.298-1.165-0.788c-0.257-0.643,0.055-1.373,0.697-1.631
			l32.003-12.833c0.644-0.258,1.373,0.055,1.631,0.697c0.257,0.643-0.055,1.373-0.697,1.631l-32.003,12.833
			C620.531,1002.311,620.373,1002.34,620.218,1002.34z"/>
		<path style="fill:#008880;" d="M653.035,795.804c-0.351,0-0.699-0.146-0.947-0.431l-40.938-47.095
			c-0.455-0.523-0.399-1.315,0.124-1.769c0.522-0.456,1.314-0.4,1.769,0.124l40.938,47.095c0.454,0.523,0.399,1.315-0.124,1.769
			C653.62,795.703,653.327,795.804,653.035,795.804z"/>
		<path style="fill:#008880;" d="M680.084,655.677c-0.422,0-0.835-0.213-1.071-0.601c-0.361-0.591-0.174-1.363,0.417-1.724
			l32.205-19.658c0.592-0.36,1.362-0.175,1.724,0.417c0.361,0.591,0.174,1.363-0.417,1.724l-32.205,19.658
			C680.532,655.618,680.307,655.677,680.084,655.677z"/>
	</g>
	<g>
		<path style="fill:#8BD0CA;" d="M544.006,1061.554c0,0-195.706-594.13-59.535-583.684
			c136.171,10.446,121.151,583.539,121.151,583.539L544.006,1061.554z"/>
		<path style="fill:#008880;" d="M577.601,1062.674c-0.57,0-1.075-0.408-1.178-0.989L472.891,478.549
			c-0.116-0.651,0.318-1.273,0.97-1.389c0.65-0.12,1.273,0.318,1.389,0.97l103.533,583.137c0.116,0.651-0.318,1.272-0.97,1.389
			C577.741,1062.667,577.67,1062.674,577.601,1062.674z"/>
		<path style="fill:#008880;" d="M484.507,538.328c-0.27,0-0.54-0.09-0.764-0.275c-0.509-0.422-0.58-1.177-0.158-1.686
			l34.815-42.023c0.422-0.509,1.178-0.579,1.686-0.158c0.509,0.422,0.58,1.177,0.158,1.686l-34.814,42.023
			C485.193,538.18,484.852,538.328,484.507,538.328z"/>
		<path style="fill:#008880;" d="M490.436,571.722c-0.167,0-0.335-0.035-0.496-0.108l-54.561-24.869
			c-0.602-0.274-0.868-0.985-0.593-1.586c0.274-0.602,0.985-0.866,1.586-0.593l54.561,24.869c0.602,0.274,0.868,0.985,0.593,1.586
			C491.326,571.461,490.891,571.722,490.436,571.722z"/>
		<path style="fill:#008880;" d="M496.828,607.715c-0.32,0-0.64-0.127-0.875-0.38c-0.452-0.483-0.426-1.241,0.057-1.693
			l56.93-53.197c0.483-0.453,1.241-0.426,1.693,0.057c0.452,0.483,0.426,1.241-0.057,1.693l-56.93,53.197
			C497.414,607.608,497.12,607.715,496.828,607.715z"/>
		<path style="fill:#008880;" d="M504.641,651.727c-0.144,0-0.29-0.026-0.433-0.082l-65.182-25.275
			c-0.617-0.239-0.923-0.933-0.684-1.55c0.239-0.616,0.932-0.922,1.55-0.684l65.182,25.275c0.617,0.239,0.923,0.933,0.684,1.55
			C505.574,651.435,505.121,651.727,504.641,651.727z"/>
		<path style="fill:#008880;" d="M510.083,682.375c-0.354,0-0.705-0.156-0.941-0.456c-0.41-0.519-0.32-1.273,0.199-1.682
			l65.433-51.583c0.521-0.41,1.274-0.321,1.682,0.199c0.41,0.52,0.32,1.273-0.199,1.682l-65.433,51.583
			C510.604,682.291,510.343,682.375,510.083,682.375z"/>
		<path style="fill:#008880;" d="M517.464,723.952c-0.139,0-0.28-0.025-0.418-0.076l-67.734-25.227
			c-0.62-0.231-0.935-0.921-0.705-1.541c0.232-0.62,0.923-0.935,1.54-0.705l67.734,25.227c0.62,0.231,0.936,0.921,0.705,1.54
			C518.407,723.653,517.95,723.952,517.464,723.952z"/>
		<path style="fill:#008880;" d="M528.448,785.818c-0.309,0-0.617-0.119-0.852-0.356c-0.465-0.47-0.461-1.229,0.009-1.694
			l62.272-61.619c0.471-0.465,1.229-0.461,1.694,0.009c0.465,0.47,0.461,1.228-0.009,1.694l-62.273,61.619
			C529.057,785.703,528.752,785.818,528.448,785.818z"/>
		<path style="fill:#008880;" d="M535.323,824.536c-0.116,0-0.234-0.017-0.351-0.053l-63.537-19.447
			c-0.632-0.194-0.988-0.864-0.795-1.496c0.194-0.632,0.865-0.988,1.496-0.795l63.537,19.447c0.632,0.194,0.988,0.863,0.795,1.496
			C536.31,824.204,535.835,824.536,535.323,824.536z"/>
		<path style="fill:#008880;" d="M545.499,881.854c-0.3,0-0.601-0.112-0.834-0.338c-0.475-0.46-0.486-1.219-0.026-1.694
			l54.622-56.319c0.46-0.475,1.218-0.487,1.694-0.026c0.475,0.461,0.486,1.219,0.026,1.694l-54.622,56.319
			C546.124,881.733,545.811,881.854,545.499,881.854z"/>
		<path style="fill:#008880;" d="M549.438,904.036c-0.116,0-0.233-0.017-0.35-0.052l-57.19-17.42
			c-0.633-0.192-0.989-0.862-0.797-1.495c0.193-0.633,0.862-0.988,1.495-0.797l57.189,17.419c0.633,0.193,0.989,0.862,0.797,1.495
			C550.425,903.703,549.951,904.036,549.438,904.036z"/>
		<path style="fill:#008880;" d="M556.9,946.068c-0.341,0-0.68-0.145-0.917-0.426c-0.426-0.506-0.362-1.262,0.144-1.688
			l46.283-39.002c0.506-0.426,1.262-0.361,1.688,0.144c0.426,0.506,0.362,1.262-0.144,1.688l-46.283,39.002
			C557.447,945.976,557.173,946.068,556.9,946.068z"/>
		<path style="fill:#008880;" d="M561.744,973.349c-0.129,0-0.259-0.021-0.388-0.065l-47.749-16.352
			c-0.626-0.214-0.96-0.896-0.745-1.522c0.214-0.625,0.894-0.958,1.521-0.745l47.75,16.352c0.625,0.214,0.96,0.896,0.745,1.522
			C562.706,973.036,562.242,973.349,561.744,973.349z"/>
		<path style="fill:#008880;" d="M566.747,1001.529c-0.343,0-0.683-0.146-0.92-0.43c-0.424-0.508-0.356-1.263,0.152-1.687
			l38.35-32.022c0.507-0.424,1.263-0.357,1.687,0.152c0.424,0.508,0.356,1.263-0.152,1.687l-38.35,32.022
			C567.29,1001.438,567.018,1001.529,566.747,1001.529z"/>
		<path style="fill:#008880;" d="M572.164,1032.036c-0.117,0-0.235-0.018-0.352-0.054l-41.911-12.877
			c-0.632-0.194-0.988-0.865-0.794-1.497c0.194-0.632,0.865-0.989,1.497-0.794l41.911,12.878c0.632,0.194,0.988,0.864,0.794,1.496
			C573.15,1031.705,572.676,1032.036,572.164,1032.036z"/>
		<path style="fill:#008880;" d="M537.488,836.731c-0.107,0-0.216-0.015-0.325-0.045l-26.158-7.36
			c-0.637-0.179-1.008-0.84-0.829-1.477c0.179-0.637,0.84-1.01,1.477-0.829l26.158,7.36c0.637,0.179,1.008,0.84,0.829,1.477
			C538.492,836.386,538.012,836.731,537.488,836.731z"/>
		<path style="fill:#008880;" d="M512.523,696.116c-0.338,0-0.674-0.143-0.911-0.42c-0.43-0.503-0.37-1.259,0.133-1.688
			l29.931-25.563c0.503-0.43,1.259-0.37,1.688,0.133c0.43,0.503,0.37,1.259-0.133,1.689L513.3,695.829
			C513.075,696.021,512.798,696.116,512.523,696.116z"/>
		<path style="fill:#008880;" d="M492.374,582.636c-0.136,0-0.274-0.023-0.409-0.072L456,569.498
			c-0.622-0.226-0.942-0.913-0.717-1.535c0.227-0.621,0.914-0.94,1.535-0.717l35.965,13.065c0.622,0.226,0.942,0.913,0.717,1.535
			C493.323,582.333,492.864,582.636,492.374,582.636z"/>
		<path style="fill:#008880;" d="M480.864,517.809c-0.225,0-0.453-0.063-0.655-0.196l-30.956-20.259
			c-0.554-0.362-0.708-1.104-0.346-1.658c0.363-0.553,1.105-0.709,1.658-0.346l30.956,20.259c0.554,0.362,0.709,1.105,0.346,1.658
			C481.637,517.618,481.254,517.809,480.864,517.809z"/>
		<path style="fill:#008880;" d="M551.292,914.478c-0.108,0-0.218-0.015-0.327-0.046l-34.829-9.862
			c-0.637-0.18-1.006-0.842-0.826-1.479c0.18-0.636,0.842-1.005,1.479-0.826l34.829,9.862c0.637,0.18,1.006,0.842,0.826,1.479
			C552.294,914.133,551.814,914.478,551.292,914.478z"/>
	</g>
	<g>
		<path style="fill:#B3E0DC;" d="M503.461,989.615c0,0-256.235-234.514-243.093-335.058
			c13.142-100.544,213.281,5.508,305.738,326.177L503.461,989.615z"/>
		<path style="fill:#008880;" d="M540.086,984.165c-0.494,0-0.977-0.244-1.264-0.69c-1.983-3.093-199.149-309.834-268.793-352.999
			c-0.704-0.436-0.921-1.361-0.485-2.065c0.436-0.704,1.361-0.922,2.065-0.485c29.51,18.289,83.878,83.421,161.596,193.584
			c57.824,81.964,107.646,159.571,108.143,160.346c0.447,0.697,0.244,1.625-0.453,2.072
			C540.644,984.088,540.364,984.165,540.086,984.165z"/>
		<path style="fill:#008880;" d="M331.557,690.874c-0.827,0-1.499-0.67-1.5-1.497l-0.107-64.671
			c-0.001-0.829,0.669-1.501,1.498-1.503c0.001,0,0.001,0,0.002,0c0.827,0,1.499,0.67,1.5,1.498l0.107,64.671
			c0.001,0.829-0.669,1.501-1.497,1.502C331.559,690.874,331.558,690.874,331.557,690.874z"/>
		<path style="fill:#008880;" d="M314.714,671.423c-0.013,0-0.025,0-0.038,0l-54.565-1.356c-0.828-0.021-1.483-0.708-1.462-1.537
			c0.021-0.829,0.725-1.505,1.537-1.462l54.565,1.356c0.828,0.02,1.483,0.708,1.462,1.537
			C316.192,670.776,315.525,671.423,314.714,671.423z"/>
		<path style="fill:#008880;" d="M368.412,737.042c-0.059,0-0.119-0.003-0.179-0.011c-0.823-0.098-1.41-0.844-1.312-1.667
			l9.579-80.439c0.097-0.823,0.845-1.416,1.667-1.312c0.823,0.098,1.41,0.844,1.312,1.667l-9.579,80.439
			C369.809,736.481,369.161,737.042,368.412,737.042z"/>
		<path style="fill:#008880;" d="M287.608,742.124c-0.711,0-1.343-0.509-1.474-1.234c-0.147-0.815,0.395-1.596,1.21-1.743
			l74.369-13.421c0.821-0.143,1.596,0.395,1.743,1.209c0.147,0.815-0.395,1.596-1.209,1.743L287.876,742.1
			C287.786,742.116,287.696,742.124,287.608,742.124z"/>
		<path style="fill:#008880;" d="M405.124,786.334c-0.126,0-0.253-0.016-0.38-0.049c-0.802-0.21-1.281-1.029-1.072-1.831
			l21.339-81.608c0.209-0.802,1.029-1.283,1.831-1.072c0.802,0.209,1.281,1.029,1.072,1.831l-21.339,81.608
			C406.397,785.888,405.79,786.334,405.124,786.334z"/>
		<path style="fill:#008880;" d="M334.532,810.158c-0.712,0-1.344-0.509-1.475-1.235c-0.147-0.815,0.396-1.595,1.211-1.742
			l76.388-13.735c0.813-0.148,1.595,0.395,1.742,1.211c0.147,0.816-0.396,1.595-1.211,1.742l-76.388,13.735
			C334.71,810.15,334.62,810.158,334.532,810.158z"/>
		<path style="fill:#008880;" d="M446.141,844.083c-0.156,0-0.316-0.025-0.473-0.077c-0.786-0.261-1.212-1.11-0.951-1.896
			l25.694-77.391c0.261-0.786,1.109-1.211,1.896-0.951c0.786,0.261,1.212,1.11,0.951,1.897l-25.695,77.391
			C447.355,843.685,446.77,844.083,446.141,844.083z"/>
		<path style="fill:#008880;" d="M380.841,865.667c-0.731,0-1.372-0.536-1.482-1.281c-0.121-0.82,0.446-1.582,1.265-1.703
			l72.83-10.732c0.817-0.124,1.581,0.445,1.703,1.265c0.121,0.82-0.446,1.582-1.265,1.703l-72.83,10.733
			C380.987,865.663,380.914,865.667,380.841,865.667z"/>
		<path style="fill:#008880;" d="M482.516,897.117c-0.158,0-0.319-0.025-0.478-0.079c-0.786-0.264-1.208-1.114-0.944-1.899
			l22.857-68.026c0.264-0.785,1.115-1.207,1.899-0.944c0.786,0.264,1.208,1.114,0.944,1.9l-22.857,68.026
			C483.727,896.721,483.143,897.117,482.516,897.117z"/>
		<path style="fill:#008880;" d="M431.182,920.06c-0.744,0-1.389-0.552-1.486-1.31c-0.105-0.822,0.476-1.573,1.297-1.678
			l61.487-7.869c0.819-0.109,1.573,0.475,1.678,1.297c0.106,0.822-0.476,1.573-1.297,1.678l-61.487,7.869
			C431.31,920.056,431.245,920.06,431.182,920.06z"/>
		<path style="fill:#008880;" d="M518.65,951.277c-0.184,0-0.372-0.034-0.553-0.106c-0.77-0.306-1.146-1.178-0.84-1.948
			l19.242-48.423c0.306-0.77,1.178-1.146,1.948-0.84c0.77,0.306,1.146,1.178,0.84,1.948l-19.242,48.423
			C519.81,950.919,519.247,951.277,518.65,951.277z"/>
		<path style="fill:#008880;" d="M475.529,964.574c-0.764,0-1.417-0.581-1.491-1.356c-0.079-0.825,0.525-1.558,1.35-1.637
			l48.774-4.686c0.82-0.079,1.557,0.525,1.637,1.35c0.079,0.825-0.525,1.558-1.35,1.637l-48.774,4.686
			C475.626,964.572,475.578,964.574,475.529,964.574z"/>
		<path style="fill:#008880;" d="M410.922,796.423c-0.14,0-0.281-0.02-0.422-0.061c-0.795-0.233-1.25-1.066-1.018-1.861
			l13.778-47.029c0.232-0.795,1.063-1.253,1.861-1.018c0.795,0.233,1.251,1.066,1.018,1.861l-13.778,47.029
			C412.169,795.998,411.571,796.423,410.922,796.423z"/>
		<path style="fill:#008880;" d="M361.981,728.702c-0.053,0-0.105-0.002-0.159-0.008c-0.824-0.086-1.422-0.825-1.335-1.648
			l4.548-43.253c0.087-0.824,0.835-1.426,1.648-1.335c0.824,0.086,1.422,0.825,1.335,1.648l-4.548,43.253
			C363.39,728.129,362.739,728.702,361.981,728.702z"/>
		<path style="fill:#008880;" d="M323.713,681.653c-0.016,0-0.032,0-0.048-0.001l-40.615-1.289
			c-0.828-0.026-1.478-0.719-1.452-1.546c0.026-0.828,0.727-1.481,1.546-1.452l40.615,1.29c0.828,0.026,1.478,0.719,1.452,1.546
			C325.185,681.013,324.519,681.653,323.713,681.653z"/>
		<path style="fill:#008880;" d="M410.303,872.851c-0.733,0-1.375-0.539-1.483-1.286c-0.118-0.82,0.451-1.581,1.271-1.699
			l50.688-7.302c0.813-0.116,1.58,0.451,1.699,1.271c0.118,0.82-0.451,1.581-1.271,1.699l-50.688,7.302
			C410.446,872.846,410.374,872.851,410.303,872.851z"/>
		<path style="fill:#008880;" d="M342.548,768.696c-0.718,0-1.353-0.518-1.477-1.25c-0.138-0.816,0.412-1.591,1.229-1.729
			l44.123-7.465c0.814-0.135,1.591,0.412,1.729,1.229c0.138,0.816-0.412,1.591-1.229,1.729l-44.123,7.465
			C342.715,768.69,342.631,768.696,342.548,768.696z"/>
	</g>
</g>
<g id="ground">
	<defs>
		<path id="XMLID_1_" d="M352.081,926.294c-122.654,24.637-147.276,95.563-153.551,179.298
			c-6.731,89.831,31.682,179.806,83.993,250.948C436,1565.261,706.997,1663.607,966.063,1661.532
			c185.764-1.488,370.945-49.169,534.485-137.289c101.298-54.583,196.921-127.369,253.234-227.715
			c89.065-158.708,117.12-383.504,38.776-547.769c-61.177-128.272-167.38-163.068-267.158-194.124
			c-64.866-20.19-135.165-12.205-201.371,3.025c-34.394,7.912-68.332,17.718-101.785,28.945
			C901.637,694.205,706.593,852.506,352.081,926.294"/>
	</defs>
	<use xlink:href="#XMLID_1_"  style="overflow:visible;fill:#E6EFF2;"/>
	<clipPath id="XMLID_00000058584771257210503310000014891664704448360634_">
		<use xlink:href="#XMLID_1_"  style="overflow:visible;"/>
	</clipPath>
	<g style="clip-path:url(#XMLID_00000058584771257210503310000014891664704448360634_);">
		<g>
			<path style="fill:#8BD0CA;" d="M330.639,1181.831c11.691-69.585-43.774-71.997-84.557-159.126
				c-35.262-75.335-72.385-68.747-81.791-65.583l-0.03-0.061c0,0-0.166,0.076-0.463,0.232c-1.155,0.415-1.778,0.736-1.778,0.736
				l0.12,0.251c-8.317,5.417-36.507,30.45,0.711,104.835c43.047,86.034,10.535,131.035,72.368,165.027
				c61.833,33.991-22.303,91.347,31.152,125.567c53.454,34.22,57.936,53.979,57.936,53.979l42.155-30.813l49.754-13.797
				c0,0-12.719-15.771-6.404-78.925C416.124,1220.997,318.948,1251.416,330.639,1181.831z"/>
			<g>
				<path style="fill:#008880;" d="M366.46,1377.874c-0.369,0-0.725-0.205-0.898-0.56L167.792,974.423
					c-0.243-0.496-0.039-1.095,0.457-1.339c0.495-0.245,1.095-0.039,1.338,0.457l197.77,402.892
					c0.243,0.495,0.039,1.095-0.457,1.338C366.758,1377.842,366.608,1377.874,366.46,1377.874z"/>
				<path style="fill:#008880;" d="M202.223,1043.293c-0.045,0-0.091-0.003-0.137-0.009c-0.547-0.075-0.93-0.579-0.855-1.127
					l7.777-56.902c0.075-0.547,0.584-0.933,1.126-0.855c0.547,0.075,0.93,0.579,0.855,1.126l-7.777,56.903
					C203.144,1042.93,202.715,1043.293,202.223,1043.293z"/>
				<path style="fill:#008880;" d="M219.544,1078.583c-0.179,0-0.36-0.048-0.523-0.148l-60.107-37.001
					c-0.47-0.289-0.617-0.905-0.327-1.376c0.289-0.47,0.905-0.617,1.376-0.327l60.107,37.001c0.47,0.289,0.617,0.905,0.327,1.376
					C220.207,1078.414,219.88,1078.583,219.544,1078.583z"/>
				<path style="fill:#008880;" d="M255.355,1151.532c-0.055,0-0.111-0.004-0.167-0.014c-0.545-0.092-0.912-0.607-0.821-1.152
					l12.027-71.561c0.091-0.544,0.607-0.918,1.152-0.82c0.545,0.092,0.912,0.607,0.821,1.152l-12.027,71.561
					C256.258,1151.187,255.834,1151.532,255.355,1151.532z"/>
				<path style="fill:#008880;" d="M268.851,1181.306c-0.177,0-0.356-0.047-0.519-0.146l-73.886-44.903
					c-0.472-0.287-0.622-0.902-0.335-1.374c0.287-0.472,0.9-0.622,1.374-0.335l73.886,44.903c0.472,0.287,0.622,0.902,0.335,1.374
					C269.518,1181.135,269.189,1181.306,268.851,1181.306z"/>
				<path style="fill:#008880;" d="M295.762,1233.848c-0.067,0-0.136-0.007-0.205-0.021c-0.54-0.113-0.888-0.643-0.775-1.183
					l20.164-96.985c0.112-0.542,0.638-0.885,1.183-0.776c0.541,0.113,0.888,0.643,0.775,1.183l-20.164,96.985
					C296.642,1233.523,296.226,1233.848,295.762,1233.848z"/>
				<path style="fill:#008880;" d="M326.643,1296.76c-0.113,0-0.228-0.019-0.34-0.06l-61.06-22.058
					c-0.52-0.188-0.789-0.761-0.601-1.28c0.187-0.52,0.76-0.793,1.28-0.601l61.06,22.058c0.52,0.188,0.789,0.761,0.601,1.28
					C327.436,1296.507,327.052,1296.76,326.643,1296.76z"/>
				<path style="fill:#008880;" d="M344.556,1333.252c-0.114,0-0.231-0.02-0.344-0.062c-0.518-0.189-0.785-0.765-0.595-1.283
					l29.361-80.023c0.19-0.518,0.767-0.783,1.283-0.594c0.519,0.189,0.785,0.765,0.595,1.283l-29.361,80.023
					C345.346,1333.001,344.963,1333.252,344.556,1333.252z"/>
				<path style="fill:#008880;" d="M357.785,1360.2c-0.063,0-0.126-0.006-0.191-0.018l-88.036-16.991
					c-0.543-0.105-0.897-0.63-0.793-1.172c0.105-0.542,0.628-0.9,1.171-0.792l88.036,16.991c0.543,0.104,0.897,0.629,0.793,1.171
					C358.673,1359.868,358.254,1360.2,357.785,1360.2z"/>
			</g>
		</g>
		<g>
			<path style="fill:#B3E0DC;" d="M410.21,1212.412c30.643-43.554-6.324-63.278-5.679-135.881
				c0.558-62.775-26.859-70.394-34.293-71.306l0-0.052c0,0-0.138-0.003-0.391,0.007c-0.922-0.094-1.45-0.078-1.45-0.078l0,0.21
				c-7.427,0.976-34.777,8.825-33.694,71.591c1.253,72.595-35.548,92.628-4.541,135.924c31.007,43.295-44.962,54.907-19.732,95.627
				c25.23,40.719,21.838,55.63,21.838,55.63l38.739-7.231l38.365,6.829c0,0-3.516-14.881,21.371-55.811
				S379.567,1255.966,410.21,1212.412z"/>
			<path style="fill:#008880;" d="M371.006,1357.607c-0.413,0-0.75-0.333-0.755-0.748l-3.271-338.717
				c-0.004-0.417,0.331-0.758,0.747-0.762c0.397-0.021,0.758,0.331,0.762,0.748l3.271,338.718c0.004,0.416-0.331,0.758-0.747,0.762
				C371.011,1357.607,371.009,1357.607,371.006,1357.607z"/>
			<path style="fill:#008880;" d="M368.29,1076.319c-0.143,0-0.287-0.04-0.415-0.125c-0.348-0.229-0.444-0.697-0.215-1.045
				l23.845-36.196c0.229-0.349,0.699-0.445,1.045-0.215c0.348,0.229,0.444,0.697,0.215,1.045l-23.845,36.196
				C368.776,1076.2,368.535,1076.319,368.29,1076.319z"/>
			<path style="fill:#008880;" d="M368.578,1105.988c-0.247,0-0.491-0.122-0.635-0.346l-28.852-44.78
				c-0.226-0.351-0.125-0.818,0.226-1.044c0.351-0.224,0.818-0.124,1.043,0.226l28.852,44.78c0.226,0.351,0.125,0.818-0.226,1.044
				C368.859,1105.949,368.718,1105.988,368.578,1105.988z"/>
			<path style="fill:#008880;" d="M369.168,1167.318c-0.15,0-0.302-0.045-0.434-0.138c-0.341-0.24-0.422-0.711-0.183-1.052
				l31.517-44.789c0.24-0.342,0.71-0.423,1.052-0.183c0.341,0.24,0.422,0.711,0.183,1.052l-31.517,44.789
				C369.639,1167.207,369.406,1167.318,369.168,1167.318z"/>
			<path style="fill:#008880;" d="M368.65,1191.985c-0.246,0-0.488-0.121-0.633-0.343l-35.654-54.653
				c-0.228-0.349-0.129-0.816,0.22-1.044c0.349-0.229,0.816-0.13,1.045,0.22l35.654,54.653c0.228,0.349,0.129,0.816-0.22,1.044
				C368.935,1191.945,368.792,1191.985,368.65,1191.985z"/>
			<path style="fill:#008880;" d="M369.837,1236.522c-0.16,0-0.321-0.051-0.457-0.154c-0.332-0.253-0.395-0.727-0.143-1.059
				l45.343-59.443c0.253-0.331,0.727-0.394,1.058-0.143c0.331,0.253,0.395,0.727,0.142,1.059l-45.343,59.443
				C370.289,1236.42,370.064,1236.522,369.837,1236.522z"/>
			<path style="fill:#008880;" d="M370.348,1289.413c-0.195,0-0.39-0.075-0.538-0.226l-34.372-34.92
				c-0.293-0.297-0.289-0.774,0.009-1.067c0.297-0.291,0.775-0.288,1.067,0.009l34.372,34.92c0.292,0.297,0.289,0.774-0.009,1.067
				C370.73,1289.341,370.54,1289.413,370.348,1289.413z"/>
			<path style="fill:#008880;" d="M370.644,1320.093c-0.196,0-0.393-0.076-0.541-0.229c-0.291-0.298-0.285-0.776,0.014-1.067
				l46.075-44.898c0.299-0.29,0.776-0.285,1.067,0.015c0.291,0.298,0.285,0.776-0.014,1.067l-46.075,44.898
				C371.024,1320.021,370.834,1320.093,370.644,1320.093z"/>
			<path style="fill:#008880;" d="M370.862,1342.748c-0.156,0-0.314-0.048-0.449-0.148l-54.385-40.266
				c-0.335-0.248-0.405-0.721-0.157-1.056c0.248-0.336,0.72-0.406,1.056-0.157l54.385,40.266c0.335,0.248,0.405,0.721,0.157,1.056
				C371.321,1342.643,371.093,1342.748,370.862,1342.748z"/>
		</g>
	</g>
	<path style="clip-path:url(#XMLID_00000058584771257210503310000014891664704448360634_);fill:#B3E0DC;" d="M1242.06,1233.957
		c80.072-43.674,161.657-85.42,248.034-114.709c86.378-29.289,178.125-45.892,268.995-38.051
		c39.943,3.447,82.194,13.034,109.741,42.162c32.658,34.533,36.15,87.723,27.854,134.523c-4.25,23.973-11.222,47.8-24.011,68.517
		c-14.522,23.525-35.992,42.109-59.305,56.969c-82.376,52.506-187.876,59.871-282.765,36.662
		c-94.889-23.209-180.671-74.352-259.4-132.183c-17.594-12.924-36.973-31.553-31.711-52.739"/>
	<path style="clip-path:url(#XMLID_00000058584771257210503310000014891664704448360634_);fill:#B3E0DC;" d="M518.649,1289.79
		c0,0,229.163-136.702,591.645-62.464s0,0,0,0l-531.226,291.22L518.649,1289.79"/>
	<g style="clip-path:url(#XMLID_00000058584771257210503310000014891664704448360634_);">
		<ellipse style="fill:#8BD0CA;" cx="1460.94" cy="1251.184" rx="105.566" ry="11.72"/>
		<g>
			<path style="fill:#B3E0DC;" d="M1525.601,888.972c0,0-11.103-6.541-24.732-46.342c-13.629-39.801-13.402-83.628,9.409-96.265
				c22.811-12.637,41.741-6.304,53.285,26.966C1575.107,806.601,1559.413,910.326,1525.601,888.972z"/>
			<path style="fill:#008880;" d="M1488.257,1255.121c-0.03,0-0.061-0.001-0.091-0.005c-0.458-0.05-0.79-0.461-0.74-0.92
				l37.042-342.646c12.096-66.141,2.004-159.763,1.9-160.701c-0.051-0.458,0.28-0.871,0.738-0.921
				c0.465-0.048,0.872,0.28,0.922,0.739c0.104,0.94,10.223,94.8-1.909,161.124l-37.033,342.585
				C1489.04,1254.804,1488.678,1255.121,1488.257,1255.121z"/>
			<path style="fill:#8BD0CA;" d="M1562.237,883.412c0,0-14.289-45.108,16.961-82.624c31.25-37.517,58.703-50.232,74.315-54.767
				c6.861-1.994,23.417-12.427,25.208,0.467c4.109,29.581,0.678,63.929-21.989,85.715c-1.986,1.909-4.089,3.694-6.292,5.349
				C1610.175,867.793,1569.241,895.622,1562.237,883.412z"/>
			<path style="fill:#008880;" d="M1467.116,1254.136c-0.063,0-0.126-0.007-0.189-0.021c-0.449-0.104-0.729-0.553-0.625-1.002
				c3.343-14.405,82.048-353.113,96.951-381.781c14.908-28.679,106.458-124.081,107.381-125.041c0.32-0.334,0.85-0.343,1.182-0.023
				c0.332,0.319,0.343,0.848,0.023,1.181c-0.922,0.958-92.306,96.187-107.104,124.654c-14.807,28.48-95.988,377.862-96.807,381.387
				C1467.839,1253.875,1467.496,1254.136,1467.116,1254.136z"/>
			<path style="fill:#8BD0CA;" d="M1489.832,953.786c0,0-43.212-13.71-45.807-94.738c-2.596-81.028,33.628-100.528,47.244-85.7
				c13.616,14.828,51.073,36.193,44.3,100.993C1528.796,939.141,1505.943,964.488,1489.832,953.786z"/>
			<path style="fill:#B3E0DC;" d="M1510.974,961.447c0,0-25.88-40.274,38.122-89.329c64.003-49.055,118.469-45.971,105.116-10.58
				C1640.86,896.929,1545.445,986.096,1510.974,961.447z"/>
			<path style="fill:#008880;" d="M1448.159,1252.019c-0.045,0-0.091-0.003-0.138-0.011c-0.455-0.075-0.763-0.506-0.688-0.961
				c0.391-2.356,39.283-236.305,62.875-289.936c6.834-15.534,25.373-41.713,74.89-78.215c29.564-21.794,56.567-37.164,56.837-37.317
				c0.4-0.227,0.91-0.086,1.139,0.314c0.228,0.401,0.087,0.911-0.314,1.139c-0.269,0.152-27.199,15.482-56.685,37.219
				c-49.21,36.279-67.586,62.187-74.337,77.533c-23.508,53.44-62.366,287.181-62.756,289.537
				C1448.914,1251.729,1448.561,1252.019,1448.159,1252.019z"/>
			<path style="fill:#008880;" d="M1433.096,1252.019c-0.054,0-0.108-0.005-0.163-0.016c-0.453-0.09-0.747-0.529-0.657-0.981
				c0.469-2.363,47.063-236.99,62.951-295.152c15.819-57.906-17.308-174.82-17.644-175.995c-0.127-0.443,0.129-0.906,0.572-1.033
				c0.445-0.127,0.906,0.129,1.033,0.573c0.338,1.179,33.592,118.539,17.649,176.895c-15.873,58.105-62.455,292.673-62.924,295.036
				C1433.835,1251.743,1433.486,1252.019,1433.096,1252.019z"/>
		</g>
	</g>
	<path style="clip-path:url(#XMLID_00000058584771257210503310000014891664704448360634_);fill:#008880;" d="M248.796,1391.272
		c-5.664-22.301-5.222-47.082,4.663-67.581c9.885-20.499,30.176-35.68,51.499-34.762c19.674,0.847,36.92,14.425,50.844,29.515
		c3.387-12.407,6.896-25.087,13.932-35.54c7.036-10.453,18.408-18.425,30.3-17.297c16.333,1.549,27.216,18.521,35.045,34.135
		c-2.594-10.437,7.436-21.071,17.389-20.403c9.953,0.668,18.099,9.883,21.054,20.207c3.917-18.184,25.57-28.814,40.763-20.011
		c2.065,1.196,4.128,2.715,6.469,2.741c3.269,0.036,5.863-2.786,8.277-5.176c17.726-17.55,45.01-19.562,67.904-11.73
		c22.894,7.832,42.456,23.965,61.505,39.803c-89.71,60.22-188.46,102.541-286.609,144.538c-19.533,8.358-39.066,16.716-58.6,25.074
		c-1.951,0.834-4.001,1.685-6.084,1.418c-2.622-0.335-4.759-2.358-6.673-4.329c-22.748-23.42-39.97-53.096-49.597-85.463"/>
	<path style="clip-path:url(#XMLID_00000058584771257210503310000014891664704448360634_);fill:#B3E0DC;" d="M311.103,1428.789
		c-2.872-12.501,5.799-25.716,17.588-30.768c11.79-5.051,25.613-3.175,37.346,2.007c-2.577-11.266-0.377-23.979,7.447-32.485
		c7.824-8.506,21.628-11.595,31.52-5.62c-5.388-17.834,4.144-39.452,21.637-45.86c17.494-6.408,39.805,5.5,42.619,23.916
		c2.896-9.475,14.352-15.324,23.725-12.112c2.651,0.908,5.344,2.444,8.073,1.812c2.878-0.666,4.637-3.461,6.412-5.822
		c9.652-12.838,27.815-17.457,43.403-13.584c15.588,3.873,28.608,15.036,37.715,28.267c-72.52,27.273-136.687,72.344-201.971,114.07
		c-14.776,9.444-31.608,19.133-48.796,15.656c-19.811-4.006-32.821-27.96-25.396-46.76"/>
	<g style="clip-path:url(#XMLID_00000058584771257210503310000014891664704448360634_);">
		<g>
			<path style="fill:#008880;" d="M533.349,1289.854c-0.806-0.05-1.415-0.742-1.363-1.548
				c3.246-50.622-8.257-113.513-18.539-157.551c-11.26-48.23-23.526-84.876-23.649-85.241l2.763-1.006
				c0.123,0.365,12.427,37.124,23.721,85.487c10.334,44.255,21.894,107.487,18.618,158.498
				C534.849,1289.297,534.153,1289.904,533.349,1289.854L533.349,1289.854z"/>
		</g>
		<g>
			<path style="fill:#8BD0CA;" d="M529.072,1196.665c0,0-3.735-47.273-61.234-48.993c-3.698-0.111-7.395,0.263-10.992,1.13
				c-8.084,1.948-22.966,6.411-27.875,13.739c0,0,17.929,6.923,45.407,26.528C489.673,1199.981,526.572,1215.505,529.072,1196.665z"
				/>
			<path style="fill:#8BD0CA;" d="M527.915,1193.163c0,0-11.337-32.138,12.226-72.204c23.563-40.066,79.506-14.286,79.506-14.286
				S581.286,1219.386,527.915,1193.163z"/>
			<path style="fill:#8BD0CA;" d="M521.26,1148.237c0,0-38.532,11.119-52.02-27.917c-13.488-39.036,16.9-91.026,16.9-91.026
				S567.441,1087.224,521.26,1148.237z"/>
			<path style="fill:#8BD0CA;" d="M532.065,1244.017c0,0-0.241-40.363-46.158-43.625c-45.917-3.262-64.307,38.74-64.307,38.74
				s61.277-0.313,82.007,9.314C524.336,1258.074,532.065,1244.017,532.065,1244.017z"/>
			<path style="fill:#8BD0CA;" d="M528.526,1242.355c0,0,7.885-55.789,72.541-43.016l36.967,7.869c0,0-35.296,26.174-55.687,38.182
				C561.956,1257.398,528.526,1242.355,528.526,1242.355z"/>
			<g>
				<path style="fill:#008880;" d="M517.642,1146.193c-0.189-0.04-0.351-0.181-0.407-0.38l-30.71-108.159
					c-0.082-0.287,0.085-0.586,0.372-0.667c0.287-0.082,0.585,0.085,0.667,0.372l30.71,108.159c0.082,0.287-0.085,0.586-0.372,0.667
					C517.814,1146.209,517.725,1146.21,517.642,1146.193z"/>
			</g>
			<g>
				<path style="fill:#008880;" d="M498.695,1079.464c-0.025-0.005-0.051-0.013-0.076-0.022c-0.28-0.104-0.422-0.414-0.319-0.694
					l9.67-26.09c0.103-0.28,0.415-0.427,0.694-0.319c0.28,0.104,0.422,0.414,0.318,0.694l-9.67,26.09
					C499.219,1079.378,498.953,1079.519,498.695,1079.464z"/>
			</g>
			<g>
				<path style="fill:#008880;" d="M499.871,1083.607c-0.024-0.005-0.047-0.012-0.071-0.02l-26.684-9.573
					c-0.28-0.101-0.426-0.41-0.326-0.691c0.101-0.28,0.411-0.421,0.691-0.326l26.684,9.573c0.28,0.101,0.426,0.41,0.326,0.691
					C500.399,1083.518,500.132,1083.662,499.871,1083.607z"/>
			</g>
			<g>
				<path style="fill:#008880;" d="M505.125,1102.108c-0.047-0.01-0.094-0.026-0.139-0.05c-0.264-0.138-0.366-0.464-0.228-0.729
					l14.916-28.483c0.138-0.264,0.469-0.365,0.729-0.228c0.264,0.138,0.366,0.464,0.228,0.729l-14.916,28.483
					C505.6,1102.049,505.355,1102.157,505.125,1102.108z"/>
			</g>
			<g>
				<path style="fill:#008880;" d="M509.406,1117.185c-0.02-0.004-0.04-0.009-0.06-0.016l-38.967-13.047
					c-0.283-0.095-0.435-0.4-0.34-0.683c0.094-0.282,0.39-0.446,0.683-0.34l38.967,13.047c0.283,0.095,0.435,0.4,0.34,0.683
					C509.942,1117.092,509.671,1117.242,509.406,1117.185z"/>
			</g>
			<g>
				<path style="fill:#008880;" d="M514.365,1134.65c-0.038-0.008-0.076-0.021-0.113-0.037c-0.271-0.125-0.39-0.445-0.265-0.716
					l14.799-32.244c0.125-0.271,0.447-0.391,0.716-0.265c0.271,0.125,0.39,0.445,0.265,0.716l-14.799,32.244
					C514.86,1134.581,514.607,1134.702,514.365,1134.65z"/>
			</g>
			<g>
				<path style="fill:#008880;" d="M515.988,1140.37c-0.02-0.004-0.039-0.009-0.059-0.016l-39.743-13.238
					c-0.283-0.094-0.436-0.4-0.342-0.683c0.095-0.283,0.396-0.431,0.683-0.342l39.743,13.238c0.283,0.094,0.436,0.4,0.342,0.683
					C516.525,1140.275,516.254,1140.426,515.988,1140.37z"/>
			</g>
			<g>
				<path style="fill:#008880;" d="M527.447,1187.525c-0.035-0.007-0.069-0.019-0.103-0.033c-0.273-0.119-0.399-0.437-0.279-0.71
					c0.073-0.168,7.487-17.038,22.057-34.98c13.462-16.578,35.965-37.498,66.718-43.019c0.293-0.053,0.574,0.142,0.627,0.436
					c0.053,0.294-0.143,0.574-0.436,0.627c-30.417,5.461-52.708,26.188-66.052,42.614c-14.484,17.829-21.852,34.585-21.924,34.753
					C527.95,1187.452,527.693,1187.578,527.447,1187.525z"/>
			</g>
			<g>
				<path style="fill:#008880;" d="M572.998,1129.435c-0.004-0.001-0.007-0.001-0.011-0.002c-0.29-0.068-0.47-0.359-0.402-0.649
					l6.415-27.343c0.067-0.286,0.351-0.466,0.638-0.405c0.004,0.001,0.007,0.002,0.011,0.002c0.29,0.068,0.47,0.359,0.402,0.649
					l-6.415,27.343C573.568,1129.316,573.284,1129.496,572.998,1129.435z"/>
			</g>
			<g>
				<path style="fill:#008880;" d="M552.709,1147.039c-0.282-0.06-0.468-0.332-0.419-0.619l6.495-37.801
					c0.05-0.294,0.329-0.492,0.623-0.441c0.3,0.035,0.492,0.329,0.441,0.623l-6.496,37.801c-0.05,0.294-0.329,0.492-0.623,0.441
					C552.723,1147.042,552.716,1147.041,552.709,1147.039z"/>
			</g>
			<g>
				<path style="fill:#008880;" d="M539.449,1166.273c-0.217-0.046-0.392-0.224-0.423-0.457l-3.9-29.24
					c-0.039-0.296,0.169-0.567,0.464-0.607c0.296-0.038,0.567,0.168,0.607,0.464l3.9,29.24c0.039,0.296-0.169,0.567-0.464,0.607
					C539.57,1166.288,539.508,1166.285,539.449,1166.273z"/>
			</g>
			<g>
				<path style="fill:#008880;" d="M530.957,1182.387c-0.251-0.053-0.434-0.279-0.427-0.544c0.009-0.298,0.257-0.532,0.556-0.523
					l40.484,1.205c0.3,0.006,0.532,0.257,0.523,0.556c-0.008,0.298-0.257,0.532-0.555,0.523l-40.484-1.205
					C531.02,1182.397,530.988,1182.393,530.957,1182.387z"/>
			</g>
			<g>
				<path style="fill:#008880;" d="M545.236,1158.052c-0.268-0.057-0.454-0.309-0.424-0.587c0.033-0.297,0.3-0.51,0.596-0.477
					l46.496,5.145c0.299,0.039,0.51,0.3,0.477,0.596c-0.033,0.296-0.3,0.51-0.596,0.477l-46.496-5.145
					C545.271,1158.059,545.253,1158.056,545.236,1158.052z"/>
			</g>
			<g>
				<path style="fill:#008880;" d="M565.736,1135.469c-0.271-0.058-0.457-0.314-0.423-0.594c0.036-0.296,0.306-0.506,0.602-0.47
					l37.731,4.637c0.297,0.034,0.506,0.306,0.47,0.602c-0.037,0.296-0.306,0.506-0.602,0.47l-37.731-4.637
					C565.767,1135.475,565.752,1135.472,565.736,1135.469z"/>
			</g>
			<g>
				<path style="fill:#008880;" d="M592.344,1117.465c-0.281-0.06-0.467-0.331-0.419-0.617c0.049-0.294,0.327-0.493,0.622-0.443
					l19.995,3.349c0.288,0.046,0.492,0.327,0.443,0.621c-0.049,0.294-0.328,0.492-0.621,0.443l-19.996-3.349
					C592.36,1117.468,592.351,1117.467,592.344,1117.465z"/>
			</g>
			<g>
				<path style="fill:#008880;" d="M524.546,1189.988c-0.118-0.025-0.229-0.09-0.31-0.192c-0.062-0.078-6.339-7.854-20.654-15.108
					c-13.218-6.699-36.189-14.309-70.551-12.527c-0.298,0.017-0.552-0.213-0.567-0.511c-0.015-0.297,0.213-0.552,0.511-0.567
					c34.642-1.798,57.819,5.901,71.163,12.676c14.498,7.362,20.688,15.042,20.944,15.365c0.185,0.234,0.146,0.573-0.088,0.758
					C524.863,1189.987,524.698,1190.02,524.546,1189.988z"/>
			</g>
			<g>
				<path style="fill:#008880;" d="M449.248,1170.879c-0.182-0.039-0.339-0.171-0.401-0.361c-0.093-0.284,0.063-0.588,0.346-0.681
					l20.944-6.823c0.285-0.094,0.588,0.062,0.68,0.346c0.093,0.284-0.063,0.588-0.346,0.68l-20.944,6.823
					C449.434,1170.895,449.338,1170.898,449.248,1170.879z"/>
			</g>
			<g>
				<path style="fill:#008880;" d="M470.697,1185.03c-0.16-0.034-0.302-0.14-0.377-0.298c-0.127-0.27-0.011-0.591,0.259-0.718
					l27.466-12.894c0.271-0.127,0.592-0.01,0.718,0.259c0.127,0.27,0.01,0.591-0.259,0.718l-27.466,12.894
					C470.927,1185.042,470.807,1185.053,470.697,1185.03z"/>
			</g>
			<g>
				<path style="fill:#008880;" d="M495.478,1199.413c-0.148-0.031-0.283-0.125-0.361-0.269c-0.143-0.262-0.047-0.589,0.215-0.732
					l24.905-13.602c0.261-0.142,0.589-0.047,0.732,0.215c0.143,0.262,0.046,0.589-0.215,0.732l-24.904,13.602
					C495.731,1199.423,495.6,1199.439,495.478,1199.413z"/>
			</g>
			<g>
				<path style="fill:#008880;" d="M512.041,1179.519c-0.179-0.038-0.335-0.167-0.399-0.353l-7.153-20.933
					c-0.096-0.282,0.054-0.589,0.336-0.686c0.282-0.096,0.589,0.054,0.686,0.336l7.153,20.933c0.096,0.282-0.054,0.589-0.336,0.686
					C512.232,1179.535,512.133,1179.539,512.041,1179.519z"/>
			</g>
			<g>
				<path style="fill:#008880;" d="M484.198,1166.906c-0.16-0.034-0.302-0.14-0.377-0.299l-7.343-15.695
					c-0.126-0.271-0.01-0.592,0.26-0.718c0.27-0.127,0.591-0.01,0.718,0.26l7.343,15.695c0.126,0.271,0.01,0.592-0.26,0.718
					C484.428,1166.919,484.309,1166.93,484.198,1166.906z"/>
			</g>
			<g>
				<path style="fill:#008880;" d="M458.3,1162.536c-0.076-0.016-0.149-0.049-0.215-0.099l-11.182-8.547
					c-0.237-0.181-0.282-0.52-0.101-0.757c0.181-0.236,0.52-0.281,0.757-0.101l11.182,8.547c0.237,0.181,0.282,0.52,0.101,0.757
					C458.711,1162.507,458.498,1162.578,458.3,1162.536z"/>
			</g>
			<g>
				<path style="fill:#008880;" d="M533.571,1236.948c-0.155-0.033-0.294-0.134-0.371-0.286c-0.134-0.267-0.026-0.591,0.241-0.724
					c0.517-0.259,52.18-25.877,96.387-27.491c0.298-0.008,0.548,0.222,0.559,0.52c0.011,0.298-0.222,0.548-0.519,0.559
					c-43.97,1.606-95.428,27.12-95.943,27.377C533.81,1236.96,533.686,1236.973,533.571,1236.948z"/>
			</g>
			<g>
				<path style="fill:#008880;" d="M583.948,1242.372c-0.01-0.002-0.019-0.004-0.029-0.007l-39.154-10.56
					c-0.288-0.078-0.458-0.374-0.381-0.662c0.078-0.288,0.374-0.462,0.662-0.381l39.154,10.56c0.288,0.078,0.458,0.374,0.381,0.662
					C584.506,1242.263,584.227,1242.431,583.948,1242.372z"/>
			</g>
			<g>
				<path style="fill:#008880;" d="M606.881,1228.602c-0.014-0.003-0.029-0.007-0.044-0.011l-29.631-8.926
					c-0.285-0.085-0.447-0.387-0.361-0.672c0.086-0.285,0.38-0.453,0.672-0.361l29.631,8.926c0.285,0.085,0.447,0.387,0.361,0.672
					C607.428,1228.5,607.153,1228.66,606.881,1228.602z"/>
			</g>
			<g>
				<path style="fill:#008880;" d="M623.473,1218.233c-0.029-0.006-0.059-0.015-0.088-0.027l-15.656-6.244
					c-0.277-0.11-0.412-0.425-0.301-0.701c0.11-0.276,0.42-0.41,0.701-0.301l15.656,6.244c0.277,0.11,0.412,0.425,0.301,0.701
					C623.987,1218.153,623.725,1218.287,623.473,1218.233z"/>
			</g>
			<g>
				<path style="fill:#008880;" d="M596.739,1214.289c-0.043-0.009-0.085-0.024-0.126-0.043c-0.267-0.131-0.378-0.455-0.247-0.723
					l6.808-13.871c0.131-0.268,0.453-0.377,0.722-0.247c0.267,0.131,0.378,0.455,0.247,0.723l-6.808,13.871
					C597.224,1214.225,596.975,1214.34,596.739,1214.289z"/>
			</g>
			<g>
				<path style="fill:#008880;" d="M569.217,1222.33c-0.041-0.009-0.081-0.022-0.12-0.041c-0.269-0.128-0.383-0.45-0.255-0.719
					l11.204-23.528c0.128-0.269,0.451-0.38,0.719-0.255c0.269,0.129,0.383,0.45,0.255,0.719l-11.204,23.528
					C569.707,1222.264,569.456,1222.381,569.217,1222.33z"/>
			</g>
			<g>
				<path style="fill:#008880;" d="M550.738,1229.309c-0.01-0.002-0.021-0.005-0.031-0.008c-0.288-0.079-0.457-0.375-0.378-0.663
					l7.143-26.064c0.079-0.288,0.374-0.455,0.663-0.378c0.288,0.078,0.457,0.375,0.378,0.663l-7.143,26.064
					C551.294,1229.201,551.015,1229.368,550.738,1229.309z"/>
			</g>
			<g>
				<path style="fill:#008880;" d="M424.134,1237.632c-0.134-0.029-0.257-0.108-0.338-0.231c-0.164-0.249-0.095-0.584,0.154-0.748
					c23.98-15.791,51.528-15.077,70.416-11.697c20.439,3.662,35.424,11.142,35.572,11.218c0.266,0.134,0.373,0.459,0.239,0.725
					c-0.134,0.266-0.459,0.374-0.725,0.239c-0.148-0.075-15.021-7.504-35.306-11.124c-18.685-3.339-45.929-4.048-69.602,11.541
					C424.418,1237.637,424.27,1237.661,424.134,1237.632z"/>
			</g>
			<g>
				<path style="fill:#008880;" d="M444.701,1238.017c-0.103-0.022-0.199-0.074-0.277-0.155c-0.206-0.215-0.198-0.557,0.017-0.763
					l13.646-13.042c0.216-0.206,0.557-0.197,0.763,0.017c0.206,0.215,0.198,0.557-0.018,0.763l-13.646,13.042
					C445.053,1238.007,444.87,1238.053,444.701,1238.017z"/>
			</g>
			<g>
				<path style="fill:#008880;" d="M473.521,1239.892c-0.088-0.019-0.172-0.059-0.243-0.122c-0.224-0.197-0.246-0.538-0.049-0.762
					l12.752-14.504c0.197-0.225,0.539-0.246,0.762-0.049c0.224,0.197,0.246,0.538,0.049,0.762l-12.752,14.504
					C473.906,1239.873,473.706,1239.931,473.521,1239.892z"/>
			</g>
			<g>
				<path style="fill:#008880;" d="M502.727,1246.109c-0.096-0.02-0.187-0.067-0.263-0.141c-0.214-0.207-0.22-0.549-0.012-0.763
					l13.802-14.225c0.207-0.214,0.549-0.219,0.763-0.012c0.214,0.207,0.219,0.549,0.012,0.763l-13.802,14.225
					C503.093,1246.095,502.903,1246.146,502.727,1246.109z"/>
			</g>
			<g>
				<path style="fill:#008880;" d="M509.265,1229.156c-0.126-0.027-0.243-0.099-0.324-0.211l-18.322-25.234
					c-0.175-0.241-0.121-0.579,0.12-0.754c0.241-0.175,0.579-0.121,0.754,0.12l18.322,25.234c0.175,0.241,0.121,0.579-0.12,0.754
					C509.566,1229.158,509.409,1229.186,509.265,1229.156z"/>
			</g>
			<g>
				<path style="fill:#008880;" d="M477.7,1224.137c-0.107-0.023-0.208-0.078-0.287-0.165l-16.054-17.655
					c-0.201-0.22-0.184-0.562,0.036-0.763c0.22-0.201,0.562-0.185,0.763,0.036l16.054,17.654c0.201,0.221,0.184,0.562-0.036,0.763
					C478.042,1224.13,477.864,1224.172,477.7,1224.137z"/>
			</g>
			<g>
				<path style="fill:#008880;" d="M448.951,1226.799c-0.016-0.003-0.032-0.007-0.047-0.012l-13.627-4.211
					c-0.285-0.088-0.445-0.391-0.357-0.675s0.396-0.44,0.675-0.356l13.627,4.211c0.285,0.088,0.444,0.39,0.356,0.675
					C449.495,1226.699,449.221,1226.856,448.951,1226.799z"/>
			</g>
		</g>
	</g>
	<path style="clip-path:url(#XMLID_00000058584771257210503310000014891664704448360634_);fill:#8BD0CA;" d="M352.155,1436.387
		c0,0,466.573-288.062,992.034-227.034c415.971,48.311,579.59,152.979,579.59,152.979s-320.703,317.724-622.738,368.717
		S434.893,1710.492,352.155,1436.387"/>
	<path style="clip-path:url(#XMLID_00000058584771257210503310000014891664704448360634_);fill:#B3E0DC;" d="M1024.195,1670.085
		c-3.299-16.958,2.159-35.381,14.162-47.805c12.003-12.425,30.227-18.514,47.289-15.802c-3.308-6.416-1.341-15.079,4.413-19.438
		s14.626-3.906,19.907,1.015c-1.322-18.706,18.721-35.612,36.937-31.156c-8.765-21.367-2.75-47.927,14.366-63.433
		c17.116-15.505,44.14-18.875,64.539-8.047c3.376-24.475,30.755-38.271,55.373-40.374c37.767-3.225,75.607,11.236,105.758,34.207
		s53.325,53.933,72.782,86.462c-87.3,64.476-198.46,85.613-305.903,100.921c-42.975,6.123-86.458,11.609-129.693,7.733"/>
	<path style="clip-path:url(#XMLID_00000058584771257210503310000014891664704448360634_);fill:#008880;" d="M1736.603,1475.099
		c15.025-24.346-21.575-54.246-42.704-73.534c-21.129-19.289-55.411-27.4-78.522-10.536c-2.978,2.173-5.939,4.799-9.606,5.179
		c-3.855,0.4-7.43-1.786-10.977-3.347c-13.504-5.942-30.553-2.569-40.778,8.067c0.981-26.403-26.979-49.707-52.774-43.984
		c-25.794,5.723-41.275,38.666-29.219,62.177c-8.851-8.474-22.726-11.241-34.151-6.812c-11.425,4.43-19.808,15.827-20.634,28.052
		c-27.812-25.37-69.76-36.712-104.66-22.6c-34.9,14.111-57.722,56.398-44.859,91.776c-11.624-4.405-25.709-1.354-34.468,7.466
		c-8.759,8.821-11.711,22.926-7.225,34.519c-26.689-6.473-55.81,12.502-64.052,38.699s2.653,56.255,23.448,74.193
		C1185.424,1664.414,1656.655,1604.641,1736.603,1475.099z"/>
	<g style="clip-path:url(#XMLID_00000058584771257210503310000014891664704448360634_);">
		<path style="fill:#B3E0DC;" d="M898.037,1762.865c0,0,31.827-42.438,27.997-120.23c-3.829-77.792,24.85-123.029,24.85-123.029
			s-144.115,73.346-126.203,175.219L898.037,1762.865z"/>
		<path style="fill:#008880;" d="M857.866,1727.721c-1.056,0-1.968-0.789-2.096-1.863c-0.129-1.087-3.077-27.031,4.51-63.328
			c7-33.484,24.733-82.244,69.465-124.377c0.849-0.801,2.186-0.761,2.987,0.089c0.8,0.85,0.76,2.188-0.09,2.987
			c-43.879,41.331-61.302,89.159-68.191,122.004c-7.479,35.654-4.515,61.865-4.484,62.126c0.137,1.159-0.691,2.21-1.85,2.348
			C858.034,1727.716,857.949,1727.721,857.866,1727.721z"/>
		<path style="fill:#008880;" d="M663.397,1643.218c0,0-11.891-150.386-64.655-209.703c0,0-107.835,92.949-36.08,207.943
			L663.397,1643.218z"/>
		<path style="fill:#B3E0DC;" d="M605.289,1644.317c-0.932,0-1.785-0.621-2.039-1.563c-0.088-0.326-8.859-33.099-14.017-75.082
			c-4.771-38.842-7.34-93.771,7.523-134.875c0.396-1.098,1.608-1.666,2.706-1.269c1.097,0.396,1.666,1.608,1.269,2.706
			c-27.946,77.292,6.252,206.126,6.601,207.418c0.304,1.127-0.363,2.287-1.49,2.591
			C605.656,1644.293,605.471,1644.317,605.289,1644.317z"/>
		<path style="fill:#B3E0DC;" d="M555.741,1613.39c0,0,18.217-79.188-25.208-168.364c0,0-82.252,57.608-55.921,143.023
			L555.741,1613.39"/>
		<path style="fill:#008880;" d="M514.172,1597.75c-0.99,0-1.874-0.698-2.071-1.707c-0.153-0.78-14.996-78.802,12.295-141.229
			c0.468-1.069,1.714-1.556,2.783-1.09c1.069,0.468,1.557,1.714,1.09,2.783c-26.754,61.196-12.171,137.954-12.021,138.723
			c0.225,1.146-0.522,2.256-1.667,2.479C514.443,1597.737,514.307,1597.75,514.172,1597.75z"/>
		<path style="fill:#B3E0DC;" d="M667.03,1676.422c0,0-93.591-111.767,43.487-303.91c0,0,95.09,192.034,55.758,316.812
			L667.03,1676.422z"/>
		<path style="fill:#008880;" d="M708.199,1650.227c-1.014,0-1.908-0.73-2.081-1.764c-0.066-0.391-6.6-39.617-10.47-88.995
			c-3.577-45.641-5.545-109.56,5.395-154.879c0.273-1.135,1.411-1.832,2.55-1.559c1.134,0.274,1.832,1.416,1.558,2.551
			c-10.807,44.771-8.843,108.195-5.292,153.52c3.854,49.199,10.362,88.273,10.427,88.663c0.193,1.15-0.583,2.24-1.734,2.434
			C708.433,1650.217,708.315,1650.227,708.199,1650.227z"/>
		<path style="fill:#008880;" d="M741.216,1653.483c0,0,18.446-137.06,127.322-188.261c0,0-9.215,189.051-29.268,252.192
			C839.27,1717.414,747.31,1718.213,741.216,1653.483"/>
		<path style="fill:#B3E0DC;" d="M787.968,1679.736c-0.086,0-0.172-0.005-0.259-0.016c-1.159-0.142-1.983-1.196-1.841-2.354
			c0.041-0.332,4.2-33.705,15.275-74.586c10.245-37.813,28.681-90,58.334-123.882c0.768-0.879,2.103-0.97,2.982-0.198
			c0.878,0.769,0.967,2.104,0.199,2.981c-29.121,33.274-47.307,84.821-57.435,122.204c-10.997,40.592-15.119,73.665-15.16,73.994
			C789.932,1678.951,789.021,1679.736,787.968,1679.736z"/>
	</g>
</g>
<g id="leave">
	<path style="fill:#B3E0DC;" d="M1511.705,1491.733c0,0-203.899-56-219.694,50.257c-15.795,106.257,80.411-20.103,126.36-14.359
		c0,0-165.13,117.745-91.898,157.95s120.616-92.286,155.078-104.297c0,0-70.36,190.452-21.539,153.118
		c48.821-37.334,70.36-140.719,70.36-140.719s11.369,105.728,55.349,176.575c6.896,11.108,23.764,8.598,27.204-4.016
		c10.869-39.861,23.48-115.021-9.321-182.611c0,0,21.524,41.853,82.033,64.449c10.292,3.844,21.487-3.023,22.579-13.955
		c3.49-34.935-6.691-106.889-137.637-140.956c0,0,76.749-25.846,138.17-1.436c61.421,24.41,9.728-54.565-33.349-64.616
		C1632.321,1417.066,1541.859,1402.183,1511.705,1491.733z"/>
	<path style="fill:#008880;" d="M1601.159,1762.314c-0.002,0-0.005,0-0.007,0c-0.461-0.004-0.832-0.381-0.828-0.842
		c0.739-90.477-23.557-158.838-44.068-200.254c-22.229-44.881-44.925-68.671-45.152-68.905c-0.319-0.332-0.311-0.861,0.021-1.181
		c0.332-0.322,0.862-0.312,1.181,0.021c0.229,0.236,23.071,24.167,45.413,69.256c20.607,41.59,45.018,110.235,44.275,201.077
		C1601.99,1761.945,1601.617,1762.314,1601.159,1762.314z"/>
	<path style="fill:#008880;" d="M1456.418,1719.662c-0.126,0-0.255-0.028-0.376-0.09c-0.411-0.208-0.576-0.71-0.368-1.122
		c40.219-79.523,80.975-190.893,81.382-192.008c0.157-0.433,0.635-0.66,1.07-0.498c0.434,0.157,0.656,0.637,0.498,1.07
		c-0.407,1.116-41.196,112.577-81.46,192.189C1457.018,1719.495,1456.724,1719.662,1456.418,1719.662z"/>
	<path style="fill:#008880;" d="M1346.325,1662.399c-0.08,0-0.161-0.011-0.241-0.035c-0.441-0.134-0.691-0.6-0.559-1.041
		c8.493-28.141,40.539-63.516,95.248-105.142c40.685-30.955,79.383-53.963,79.769-54.192c0.396-0.235,0.908-0.104,1.145,0.293
		c0.234,0.396,0.104,0.909-0.293,1.145c-1.54,0.912-154.242,92.022-174.269,158.379
		C1347.016,1662.167,1346.685,1662.399,1346.325,1662.399z"/>
	<path style="fill:#008880;" d="M1313.586,1554.75c-0.142,0-0.285-0.036-0.417-0.112c-0.399-0.23-0.536-0.741-0.305-1.141
		c11.104-19.198,28.686-34.229,52.252-44.677c18.806-8.336,41.444-13.786,67.288-16.2c41.411-3.867,78.023,1.409,82.446,2.087
		c2.807-2.977,24.337-25.018,58.481-38.534c21.442-8.487,43.598-12.011,65.85-10.478c27.8,1.918,55.816,11.785,83.272,29.326
		c0.389,0.249,0.503,0.765,0.255,1.153c-0.249,0.389-0.767,0.503-1.153,0.255c-27.204-17.38-54.942-27.159-82.445-29.065
		c-21.997-1.522-43.897,1.953-65.101,10.337c-36.146,14.291-58.013,38.219-58.229,38.459c-0.191,0.21-0.473,0.307-0.756,0.265
		c-0.383-0.063-38.748-6.229-82.499-2.139c-25.657,2.399-48.114,7.806-66.748,16.068c-23.229,10.301-40.546,25.097-51.468,43.979
		C1314.155,1554.601,1313.874,1554.75,1313.586,1554.75z"/>
	<path style="fill:#008880;" d="M1694.896,1635.407c-0.286,0-0.564-0.146-0.72-0.41c-29.356-49.661-67.816-72.068-94.911-82.121
		c-29.341-10.886-51.986-10.025-52.21-10.021c-0.438,0.035-0.852-0.335-0.871-0.797c-0.021-0.461,0.337-0.852,0.797-0.871
		c0.23-0.014,23.216-0.878,52.864,10.122c27.349,10.147,66.163,32.756,95.769,82.838c0.235,0.396,0.104,0.909-0.294,1.144
		C1695.188,1635.37,1695.041,1635.407,1694.896,1635.407z"/>
</g>
<g id="grass">
	<g>
		<path style="fill:#008880;" d="M1414.621,1230.442c7.205-14.642,19.063-26.623,33.637-33.967c2.874-1.448,0.345-5.763-2.524-4.317
			c-11.933,6.014-22.204,15.1-29.777,26.097c-2.12,3.078-4.003,6.311-5.653,9.664c-0.596,1.211-0.327,2.705,0.897,3.42
			C1412.303,1231.983,1414.023,1231.658,1414.621,1230.442L1414.621,1230.442z"/>
		<path style="fill:#008880;" d="M1405.086,1227.727c2.439-7.299,4.037-14.82,4.887-22.467c0.149-1.344-1.256-2.5-2.5-2.5
			c-1.476,0-2.35,1.152-2.5,2.5c-0.799,7.19-2.416,14.278-4.708,21.137c-0.428,1.28,0.494,2.731,1.746,3.075
			C1403.374,1229.848,1404.656,1229.012,1405.086,1227.727L1405.086,1227.727z"/>
		<path style="fill:#008880;" d="M1392.944,1221.312c0.891-9.03,0.146-18.178-2.121-26.963c-0.803-3.113-5.627-1.794-4.821,1.329
			c2.162,8.38,2.792,17.023,1.943,25.634c-0.133,1.346,1.244,2.5,2.5,2.5C1391.906,1223.812,1392.811,1222.662,1392.944,1221.312
			L1392.944,1221.312z"/>
	</g>
	<g>
		<path style="fill:#008880;" d="M1232.801,1352.268c4.594-10.001,11.86-18.618,21.062-24.68c2.676-1.763,0.174-6.094-2.524-4.317
			c-9.887,6.514-17.908,15.703-22.855,26.474c-0.563,1.226-0.348,2.692,0.897,3.421
			C1230.457,1353.795,1232.235,1353.501,1232.801,1352.268L1232.801,1352.268z"/>
		<path style="fill:#008880;" d="M1223.292,1347.724c0.589-9.889,0.329-19.807-0.778-29.651c-0.151-1.342-1.041-2.5-2.5-2.5
			c-1.234,0-2.652,1.15-2.5,2.5c1.107,9.845,1.367,19.762,0.778,29.651C1218.101,1350.938,1223.101,1350.927,1223.292,1347.724
			L1223.292,1347.724z"/>
		<path style="fill:#008880;" d="M1210.159,1346.846c-5.279-6.01-10.557-12.02-15.836-18.03c-0.891-1.015-2.624-0.911-3.536,0
			c-1.007,1.007-0.894,2.518,0,3.536c5.279,6.01,10.557,12.02,15.836,18.03c0.891,1.015,2.624,0.911,3.536,0
			C1211.166,1349.374,1211.052,1347.864,1210.159,1346.846L1210.159,1346.846z"/>
		<path style="fill:#008880;" d="M1198.665,1354.342c-5.302-3.559-11.173-6.267-17.309-8.034c-1.256-0.362-2.778,0.44-3.075,1.746
			c-0.304,1.334,0.401,2.688,1.746,3.075c5.787,1.667,11.065,4.141,16.114,7.53c1.122,0.753,2.769,0.217,3.421-0.897
			C1200.281,1356.533,1199.789,1355.096,1198.665,1354.342L1198.665,1354.342z"/>
		<g>
			<path style="fill:#008880;" d="M1212.923,1359.665c3.217,0,3.223-5,0-5C1209.706,1354.665,1209.7,1359.665,1212.923,1359.665
				L1212.923,1359.665z"/>
		</g>
	</g>
	<g>
		<g>
			<path style="fill:#008880;" d="M842.431,1265.947c-5.018-10.807-5.966-23.302-2.821-34.772c0.852-3.108-3.97-4.434-4.821-1.329
				c-3.518,12.832-2.269,26.577,3.325,38.625c0.569,1.225,2.333,1.533,3.42,0.897
				C842.79,1268.633,843.002,1267.176,842.431,1265.947L842.431,1265.947z"/>
			<path style="fill:#008880;" d="M821.917,1258.583c-2.667-7.959-5.335-15.919-8.003-23.878c-1.017-3.036-5.848-1.734-4.821,1.329
				c2.667,7.96,5.335,15.919,8.003,23.879C818.113,1262.948,822.944,1261.646,821.917,1258.583L821.917,1258.583z"/>
			<path style="fill:#008880;" d="M851.897,1253.349c2.745-10.063,5.489-20.126,8.234-30.189c0.848-3.109-3.974-4.435-4.821-1.329
				c-2.745,10.063-5.489,20.126-8.234,30.189C846.227,1255.128,851.05,1256.455,851.897,1253.349L851.897,1253.349z"/>
		</g>
		<path style="fill:#008880;" d="M808.856,1256.995c-3.964-3.333-8.251-6.258-12.842-8.659c-1.158-0.605-2.769-0.335-3.42,0.897
			c-0.608,1.151-0.341,2.773,0.897,3.42c2.165,1.132,4.272,2.375,6.304,3.732c0.985,0.658,1.953,1.342,2.902,2.05
			c0.237,0.177,0.473,0.356,0.708,0.536c-0.282-0.216-0.037-0.028,0.108,0.086c0.116,0.092,0.232,0.183,0.348,0.276
			c0.492,0.392,0.978,0.792,1.46,1.197c1,0.841,2.568,1.053,3.536,0C809.707,1259.604,809.925,1257.894,808.856,1256.995
			L808.856,1256.995z"/>
	</g>
	<g>
		<path style="fill:#008880;" d="M642.043,1392.844c1.804-9.804,5.359-19.143,10.568-27.643c1.686-2.751-2.637-5.266-4.317-2.524
			c-5.413,8.834-9.196,18.648-11.071,28.838c-0.244,1.327,0.365,2.696,1.746,3.075
			C640.183,1394.924,641.798,1394.178,642.043,1392.844L642.043,1392.844z"/>
		<path style="fill:#008880;" d="M626.806,1396.889c-6.198-4.822-12.613-9.345-19.271-13.51c-1.145-0.716-2.754-0.243-3.42,0.897
			c-0.701,1.199-0.251,2.702,0.897,3.421c6.291,3.936,12.401,8.171,18.259,12.729c1.065,0.828,2.498,1.038,3.536,0
			C627.669,1399.561,627.878,1397.723,626.806,1396.889L626.806,1396.889z"/>
		<path style="fill:#008880;" d="M608.346,1401.75c-5.396-1.781-10.998-2.85-16.664-3.267c-1.307-0.096-2.557,1.219-2.5,2.5
			c0.064,1.437,1.1,2.397,2.5,2.5c5.14,0.378,10.292,1.424,15.335,3.088c1.243,0.41,2.786-0.475,3.075-1.746
			C610.406,1403.449,609.677,1402.189,608.346,1401.75L608.346,1401.75z"/>
		<path style="fill:#008880;" d="M631.445,1385.631c-2.095-6.535-2.955-13.312-2.568-20.163c0.076-1.349-1.204-2.5-2.5-2.5
			c-1.417,0-2.423,1.147-2.5,2.5c-0.41,7.251,0.529,14.577,2.746,21.492c0.412,1.285,1.735,2.115,3.075,1.746
			C630.963,1388.359,631.859,1386.922,631.445,1385.631L631.445,1385.631z"/>
	</g>
	<g>
		<path style="fill:#008880;" d="M1621.342,1267.954c3.821-6.205,8.806-11.702,14.663-16.047c0.812-0.602,1.224-1.623,0.673-2.565
			c-0.468-0.801-1.747-1.279-2.565-0.673c-6.392,4.742-11.832,10.61-16.009,17.392
			C1616.834,1268.122,1620.077,1270.008,1621.342,1267.954L1621.342,1267.954z"/>
		<path style="fill:#008880;" d="M1637.368,1264.905c4.249-2.209,8.499-4.417,12.748-6.626c0.898-0.467,1.166-1.722,0.673-2.565
			c-0.533-0.911-1.664-1.141-2.565-0.673c-4.249,2.209-8.499,4.417-12.748,6.626c-0.898,0.467-1.166,1.722-0.672,2.565
			C1635.336,1265.143,1636.467,1265.374,1637.368,1264.905L1637.368,1264.905z"/>
		<path style="fill:#008880;" d="M1653.4,1269.893c4.676-2.678,8.556-6.752,10.955-11.58c0.436-0.877,0.264-2.071-0.673-2.565
			c-0.848-0.448-2.099-0.265-2.565,0.673c-0.552,1.11-1.177,2.181-1.883,3.2c-0.18,0.261-0.368,0.516-0.555,0.772
			c-0.2,0.272,0.053-0.059-0.075,0.101c-0.09,0.113-0.179,0.226-0.27,0.338c-0.4,0.492-0.818,0.969-1.252,1.43
			c-0.831,0.882-1.727,1.695-2.667,2.458c-0.44,0.358,0.287-0.21-0.166,0.131c-0.115,0.087-0.231,0.173-0.347,0.257
			c-0.256,0.187-0.516,0.369-0.778,0.546c-0.526,0.354-1.066,0.686-1.616,1.001c-0.852,0.488-1.218,1.719-0.673,2.565
			C1651.389,1270.08,1652.489,1270.415,1653.4,1269.893L1653.4,1269.893z"/>
		<path style="fill:#008880;" d="M1673.58,1273.807c-0.08-3.707,0.83-7.234,2.707-10.429c0.497-0.846,0.221-2.093-0.673-2.565
			c-0.901-0.476-2.035-0.231-2.565,0.673c-2.182,3.715-3.312,8.013-3.219,12.322c0.021,0.98,0.847,1.921,1.875,1.875
			C1672.703,1275.637,1673.603,1274.857,1673.58,1273.807L1673.58,1273.807z"/>
		<path style="fill:#008880;" d="M1682.511,1283.93c5.557-4.118,11.114-8.236,16.671-12.354c0.812-0.602,1.223-1.624,0.673-2.565
			c-0.469-0.801-1.747-1.279-2.565-0.673c-5.557,4.118-11.114,8.236-16.671,12.354c-0.812,0.602-1.223,1.624-0.672,2.565
			C1680.414,1284.059,1681.693,1284.537,1682.511,1283.93L1682.511,1283.93z"/>
	</g>
</g>
<g id="man">
	<g>
		<g>
			<linearGradient id="SVGID_1_" gradientUnits="userSpaceOnUse" x1="1072.989" y1="933.7462" x2="1072.989" y2="874.3926">
				<stop  offset="0.5075" style="stop-color:#FFACAA"/>
				<stop  offset="0.8574" style="stop-color:#FB6B67"/>
			</linearGradient>
			<polygon style="fill:url(#SVGID_1_);" points="1097.074,922.609 1048.904,922.609 1054.628,874.705 1091.35,874.705 			"/>
			<g>
				<path d="M1104.522,811.62c-8.088-15.394-30.568-15.064-31.822-15.033c-1.254-0.031-23.734-0.36-31.822,15.033
					c-8.321,15.836,3.5,38.535,3.5,38.535h28.202h0.239h28.202C1101.022,850.155,1112.843,827.457,1104.522,811.62z"/>
				
					<linearGradient id="SVGID_00000129915925211754724100000009638137635216277648_" gradientUnits="userSpaceOnUse" x1="1072.4388" y1="898.9288" x2="1072.9618" y2="831.99">
					<stop  offset="0.4185" style="stop-color:#FFACAA"/>
					<stop  offset="0.5497" style="stop-color:#FFA7A6"/>
					<stop  offset="0.7018" style="stop-color:#FE9A98"/>
					<stop  offset="0.8636" style="stop-color:#FC8480"/>
					<stop  offset="1" style="stop-color:#FB6B67"/>
				</linearGradient>
				<path style="fill:url(#SVGID_00000129915925211754724100000009638137635216277648_);" d="M1099.232,842.678v-11.812
					c0-3.135-0.957-6.045-2.594-8.457c-5.151,2.107-13.82,3.491-23.649,3.491c-9.684,0-18.238-1.344-23.415-3.399
					c-1.599,2.394-2.535,5.27-2.535,8.366v11.876c-0.212-0.018-0.415-0.064-0.632-0.064c-4.13,0-7.478,3.348-7.478,7.478
					c0,4.13,3.348,7.478,7.478,7.478c0.216,0,0.42-0.046,0.632-0.064v0.863c0,14.413,11.684,26.096,26.096,26.096h0
					c14.412,0,26.096-11.684,26.096-26.096v-0.8c4.13,0,7.477-3.348,7.477-7.478
					C1106.709,846.026,1103.362,842.678,1099.232,842.678z"/>
			</g>
			<path style="fill:#FF9E3E;" d="M1224.739,991.369l-23.279-45.222c-15.872-30.832-47.439-48.308-79.917-47.704
				c-3.042-0.488-6.163-0.755-9.351-0.755h-83.733c-3.155,0-6.244,0.261-9.256,0.739c-32.078-0.183-63.099,17.246-78.786,47.72
				l-23.28,45.222l58.47,30.099l5.141,124.342c0.154,3.724,3.218,6.664,6.946,6.664h165.265c3.728,0,6.792-2.94,6.946-6.664
				l5.114-123.698L1224.739,991.369z"/>
		</g>
		<path d="M975.758,1022.547c-0.552,0-1-0.448-1-1V971.79c0-0.552,0.448-1,1-1c0.552,0,1,0.448,1,1v49.757
			C976.758,1022.099,976.31,1022.547,975.758,1022.547z"/>
		<path d="M1165.807,1022.677c-0.553,0-1-0.448-1-1V969.7c0-0.552,0.447-1,1-1s1,0.448,1,1v51.977
			C1166.807,1022.229,1166.359,1022.677,1165.807,1022.677z"/>
	</g>
	<polygon points="1152.958,1152.475 987.692,1152.475 1001.53,1250.686 1146.988,1250.686 	"/>
	<g>
		
			<linearGradient id="SVGID_00000147900755171751806270000001101658497263650457_" gradientUnits="userSpaceOnUse" x1="7769.0732" y1="2078.6082" x2="7795.7393" y2="1913.2799" gradientTransform="matrix(-0.2517 -0.9678 -0.9678 0.2517 4768.2158 8374.417)">
			<stop  offset="0.3006" style="stop-color:#FFACAC"/>
			<stop  offset="0.3915" style="stop-color:#FEA5A5"/>
			<stop  offset="0.5231" style="stop-color:#FD9391"/>
			<stop  offset="0.679" style="stop-color:#FB7672"/>
			<stop  offset="0.7388" style="stop-color:#FA6964"/>
		</linearGradient>
		<path style="fill:url(#SVGID_00000147900755171751806270000001101658497263650457_);" d="M945.827,1329.14l-23.236,12.812
			c-8.13,2.846-14.575,8.784-19.133,16.092c-1.748,2.803-4.561,4.726-9.079,3.347c-11.296-3.448-16.544-9.384-27.8-6.017
			c-11.256,3.367-24.746,4.584-32.91-1.566c0,0-6.878,5.225-13.65-1.863c-1.318-1.38-0.875-3.655,0.85-4.471l106.351-50.352
			L945.827,1329.14z"/>
		<path style="fill:#050542;" d="M899.984,1290.523l37.609,62.456l248.334-110.728c34.898-21.015,47.332-64.384,27.77-96.869l0,0
			c-10.682-17.739-34.79-22.817-53.847-11.341L899.984,1290.523z"/>
	</g>
	<g>
		<g>
			
				<linearGradient id="SVGID_00000021827587447255139550000016161171871764517027_" gradientUnits="userSpaceOnUse" x1="907.4118" y1="1131.1553" x2="960.045" y2="987.6102">
				<stop  offset="0.5248" style="stop-color:#FFACAA"/>
				<stop  offset="0.6158" style="stop-color:#FFA7A5"/>
				<stop  offset="0.7275" style="stop-color:#FE9896"/>
				<stop  offset="0.8494" style="stop-color:#FC817D"/>
				<stop  offset="0.937" style="stop-color:#FB6B67"/>
			</linearGradient>
			<path style="fill:url(#SVGID_00000021827587447255139550000016161171871764517027_);" d="M914.67,1098.536L914.67,1098.536
				c-11.557-5.256-16.958-18.654-12.278-30.456l27.531-70.129l45.835,23.595l-29.477,65.005
				C940.898,1098.63,926.706,1104.011,914.67,1098.536z"/>
			
				<linearGradient id="SVGID_00000183937791129041259610000015947255096788244925_" gradientUnits="userSpaceOnUse" x1="-650.1721" y1="1855.3252" x2="-829.8412" y2="1946.1924" gradientTransform="matrix(0.7123 0.7019 -0.7019 0.7123 2821.2229 263.8903)">
				<stop  offset="0.5248" style="stop-color:#FFACAA"/>
				<stop  offset="0.6158" style="stop-color:#FFA7A5"/>
				<stop  offset="0.7275" style="stop-color:#FE9896"/>
				<stop  offset="0.8494" style="stop-color:#FC817D"/>
				<stop  offset="0.937" style="stop-color:#FB6B67"/>
			</linearGradient>
			<path style="fill:url(#SVGID_00000183937791129041259610000015947255096788244925_);" d="M921.785,1060.999l109.554,42.455
				l-22.43,22.763c0,0-93.669,1.568-107.976-38.094c0,0-5.084-11.463,3.304-22.329
				C908.343,1060.474,915.519,1058.57,921.785,1060.999z"/>
		</g>
		<g>
			
				<linearGradient id="SVGID_00000152247270716053724930000014405903954605276805_" gradientUnits="userSpaceOnUse" x1="1221.2788" y1="1128.8916" x2="1273.912" y2="985.3466" gradientTransform="matrix(-1 0 0 1 2458.7922 0)">
				<stop  offset="0.5248" style="stop-color:#FFACAA"/>
				<stop  offset="0.6158" style="stop-color:#FFA7A5"/>
				<stop  offset="0.7275" style="stop-color:#FE9896"/>
				<stop  offset="0.8494" style="stop-color:#FC817D"/>
				<stop  offset="0.937" style="stop-color:#FB6B67"/>
			</linearGradient>
			<path style="fill:url(#SVGID_00000152247270716053724930000014405903954605276805_);" d="M1230.255,1096.273L1230.255,1096.273
				c11.557-5.256,16.958-18.654,12.278-30.455l-27.531-70.129l-45.835,23.595l29.477,65.005
				C1204.027,1096.367,1218.219,1101.747,1230.255,1096.273z"/>
			
				<linearGradient id="SVGID_00000062873275218586197020000005535174785715137152_" gradientUnits="userSpaceOnUse" x1="-75.0708" y1="1414.6346" x2="-254.7403" y2="1505.5021" gradientTransform="matrix(-0.8202 0.5721 0.5721 0.8202 210.4904 -12.5034)">
				<stop  offset="0.5248" style="stop-color:#FFACAA"/>
				<stop  offset="0.6158" style="stop-color:#FFA7A5"/>
				<stop  offset="0.7275" style="stop-color:#FE9896"/>
				<stop  offset="0.8494" style="stop-color:#FC817D"/>
				<stop  offset="0.937" style="stop-color:#FB6B67"/>
			</linearGradient>
			<path style="fill:url(#SVGID_00000062873275218586197020000005535174785715137152_);" d="M1224.985,1060.267l-115.134,23.422
				l18.282,26.212c0,0,92.071,17.301,112.845-19.388c0,0,6.94-10.445,0.5-22.567
				C1238.324,1062.011,1231.57,1058.927,1224.985,1060.267z"/>
		</g>
		<g>
			<path style="fill:#BBE0F8;" d="M1157.379,1165.573H984.466c-4.495,0-8.229-3.469-8.558-7.952l-11.043-150.46
				c-0.365-4.973,3.571-9.209,8.557-9.209h197.495c5.042,0,8.998,4.327,8.546,9.349l-13.538,150.46
				C1165.527,1162.184,1161.82,1165.573,1157.379,1165.573z"/>
			
				<ellipse transform="matrix(0.7071 -0.7071 0.7071 0.7071 -451.5478 1075.2521)" style="fill:#72C4F4;" cx="1072.17" cy="1082.693" rx="22.736" ry="22.736"/>
		</g>
	</g>
	<g>
		<g>
			<path style="fill:#050542;" d="M1064.616,1471.524H991.71l-33.247-269.861c0-40.737,30.74-73.761,68.66-73.761h0
				c20.707,0,37.493,18.033,37.493,40.279V1471.524z"/>
			<g>
				
					<linearGradient id="SVGID_00000124130378670185181330000010163748773594553004_" gradientUnits="userSpaceOnUse" x1="1061.7964" y1="1647.8766" x2="1023.7477" y2="1454.4631">
					<stop  offset="0.3006" style="stop-color:#FFACAC"/>
					<stop  offset="0.3915" style="stop-color:#FEA5A5"/>
					<stop  offset="0.5231" style="stop-color:#FD9391"/>
					<stop  offset="0.679" style="stop-color:#FB7672"/>
					<stop  offset="0.7388" style="stop-color:#FA6964"/>
				</linearGradient>
				<path style="fill:url(#SVGID_00000124130378670185181330000010163748773594553004_);" d="M1009.435,1471.524h41.598
					c0,0-4.992,26.72,0,39.478c4.089,10.451,19.344,52.165,24.729,66.913c1.124,3.079-0.299,6.49-3.268,7.879
					c-11.48,5.372-39.004,14.87-50.475-10.707c-11.626-25.924-9.493-59.459-8.104-72.28c0.394-3.637-0.029-7.308-1.245-10.758
					L1009.435,1471.524z"/>
				<path d="M1064.616,1589.971c-0.4,0-0.778-0.242-0.933-0.639l-5.832-15.034c-0.199-0.515,0.056-1.094,0.571-1.294
					c0.511-0.199,1.093,0.056,1.294,0.571l5.832,15.034c0.199,0.515-0.056,1.094-0.571,1.294
					C1064.859,1589.949,1064.736,1589.971,1064.616,1589.971z"/>
			</g>
		</g>
		<path style="fill:#F5FAFF;" d="M1064.616,1298.121c-0.553,0-1-0.447-1-1v-100.467c0-0.553,0.447-1,1-1s1,0.447,1,1v100.467
			C1065.616,1297.674,1065.169,1298.121,1064.616,1298.121z"/>
		<path style="fill:#F5FAFF;" d="M975.756,1339.094c-0.495,0-0.925-0.368-0.99-0.872l-11.142-86.489
			c-0.071-0.548,0.316-1.049,0.864-1.12c0.544-0.064,1.049,0.316,1.12,0.864l11.142,86.489c0.071,0.548-0.316,1.049-0.864,1.12
			C975.842,1339.091,975.799,1339.094,975.756,1339.094z"/>
	</g>
</g>
</svg>
